<?xml version="1.0" encoding="utf-8"?>
<!DOCTYPE svg PUBLIC "-//W3C//DTD SVG 1.0//EN" "http://www.w3.org/TR/2001/REC-SVG-20010904/DTD/svg10.dtd">
<svg version="1.0" xmlns="http://www.w3.org/2000/svg" width="2154px" height="696px" viewBox="0 0 2154 696" preserveAspectRatio="xMidYMid meet">
 <g fill="#ffffff">
  <path d="M0 348 l0 -348 1077 0 1077 0 0 348 0 348 -1077 0 -1077 0 0 -348z m378.8 200 c48.8 -8.8 90.5 -37.8 118.4 -82.5 17.9 -28.6 27.1 -67 23.9 -99.5 -4.2 -42.1 -22.3 -79.9 -52.2 -109.1 -6.2 -6 -21.9 -18.5 -21.9 -17.4 0 0.4 1.3 2.4 2.8 4.4 3.5 4.5 12 18.6 16 26.6 7.6 15.4 13.7 34.7 16.8 53 2.1 12.3 2.4 48 0.5 60 -3.7 23.8 -12.9 49.5 -24.8 69.2 -16.7 27.7 -44.1 53.1 -73.3 67.8 -24 12.1 -47.3 17.9 -76.5 19.2 l-15 0.6 8.5 2.9 c7.7 2.6 24.4 6.1 34.5 7.2 8.1 0.9 31.5 -0.5 42.3 -2.4z m824 -16.1 c11.1 -5.5 16.2 -14.4 52.2 -91.9 23.6 -50.7 44.3 -93.5 49.6 -102.1 4.3 -7.1 8.2 -9.9 14.1 -9.9 3.4 0 4.3 -0.4 4.8 -2.1 0.4 -1.2 0.3 -2.5 -0.2 -3 -0.5 -0.5 -11.5 -0.8 -25.4 -0.7 -22.9 0.3 -24.4 0.4 -24.7 2.2 -0.5 2.4 1.4 3.6 6.1 3.6 3.9 0 7.6 1.4 8.9 3.4 0.4 0.6 0.8 3.9 0.8 7.3 0 7 -2.7 15 -18.2 53.1 l-9 22.2 -4.2 0 -4.2 0 -9.9 -34.7 c-9.8 -34.5 -12 -45.7 -9.6 -49.2 0.5 -0.8 3.1 -1.7 5.8 -2 4.3 -0.5 4.8 -0.9 4.8 -3.1 l0 -2.5 -34.8 -0.3 -34.8 -0.2 0.3 2.7 c0.3 2.4 0.8 2.8 3.8 3.1 6.4 0.5 8 1.2 10.5 5 2.4 3.7 14.2 32.7 32.1 78.9 12.3 31.9 16.4 43.8 16.4 47.8 0 1.8 -1.5 6.9 -3.4 11.2 -5.4 12.6 -17.5 36.2 -19.6 38.3 -2.9 2.9 -10.1 2.6 -17 -0.6 -7 -3.3 -10.8 -3.4 -14.8 -0.5 -3.6 2.5 -7.2 8.8 -7.2 12.3 0 4.1 4.2 10 8.9 12.5 5.9 3.1 10.5 2.9 17.9 -0.8z m-877.5 -17.4 c26.8 -4.4 51.9 -15.4 73.3 -32.1 10.4 -8.1 31.4 -29.1 31.4 -31.4 0 -0.6 0.7 -1.3 1.5 -1.6 0.8 -0.4 1.5 -1.2 1.5 -2 0 -0.8 0.5 -1.4 1 -1.4 0.6 0 1 -0.7 1 -1.5 0 -0.8 0.5 -1.5 1 -1.5 0.6 0 1 -0.6 1 -1.4 0 -0.8 0.6 -2.1 1.3 -2.8 1.8 -2 6 -11.3 4.5 -10.2 -19 14.6 -32.2 22.1 -52.1 29.5 -33.3 12.4 -77.7 14.5 -113.7 5.4 -24.6 -6.2 -47.7 -17.5 -66.2 -32.1 -7.9 -6.3 -24.5 -22.4 -27.1 -26.3 -2.7 -4.1 -3.1 -1.7 -1.2 7.6 5.7 28.7 20.1 57.3 40.2 79.4 10.2 11.3 15.4 14.1 37 20 18 4.9 45 5.9 65.6 2.4z m349.7 -63 c16.1 -4.1 27.5 -13 33.9 -26.4 3.3 -7 3.6 -8.3 3.6 -16.6 0 -7.8 -0.4 -9.7 -2.8 -14.7 -3.2 -6.6 -11.6 -14.7 -19 -18.5 -2.8 -1.4 -11.8 -4.5 -20 -7 -16.6 -4.9 -21 -6.8 -24.7 -10.8 -2.2 -2.4 -2.5 -3.7 -2.8 -11.8 -0.3 -8.3 -0.1 -9.5 2 -12.7 4 -6 8.9 -8 19.3 -8 12.6 0 15.3 1.5 28.8 15.5 13.6 14.2 15.9 14.8 13.8 4 -3.8 -19.3 -2.7 -17.7 -14.9 -22 -16.9 -5.9 -33.4 -5.2 -47.3 2.1 -13.6 7.1 -20.3 15.5 -23.5 29 -1.8 8.1 -1.3 13.6 2.2 21.4 5.2 11.5 13.9 17.5 36.3 25.1 15.6 5.3 22.8 9.2 26.5 14.2 1.7 2.3 2 4.3 2 11.5 0 10.1 -2.1 15.1 -8.1 19.2 -3.4 2.3 -4.6 2.5 -14.7 2.5 -9.6 0 -11.7 -0.3 -15.4 -2.3 -6 -3.2 -10.5 -8.2 -19.1 -20.9 -5.8 -8.7 -7.8 -10.9 -9.2 -10.6 -1.1 0.3 -1.9 0.6 -1.9 0.7 0 0.7 3.1 22.6 3.5 25.4 0.8 4.4 3.6 6.7 11 9.2 15.4 5.1 27.4 5.9 40.5 2.5z m130.6 -0.5 c9.1 -2.3 21.4 -8.5 21.4 -10.6 0 -1.2 -0.6 -1.5 -2.2 -1 -1.3 0.4 -6.1 0.9 -10.8 1.3 -10.1 0.7 -14.4 -0.7 -18.3 -5.9 -5.2 -6.8 -5.7 -11.4 -5.7 -57 l0 -41.8 16.9 0 c23 0 22.7 0.1 24.2 -6.7 1.1 -4.6 1 -5.6 -0.2 -6.4 -0.8 -0.5 -10.1 -0.9 -20.8 -0.9 l-19.4 0 0.7 -17.5 c0.4 -9.6 0.4 -17.9 0.1 -18.5 -0.4 -0.7 -4.4 2.6 -9.8 8.1 -15.7 15.9 -34 30.8 -45.7 37.2 -5.3 2.9 -2.5 4.2 8.8 4.2 l9.7 0 -0.4 46.6 -0.4 46.7 2.5 5.3 c4.6 10 10.9 15.3 21.8 18.3 6.6 1.9 16.9 1.3 27.6 -1.4z m102.7 1.5 c12.1 -2.5 24.8 -9.7 29.2 -16.4 1.7 -2.6 2.6 -3.1 6.2 -3.1 l4.1 0 0.7 6.8 c1 10 1.8 12.7 4.1 12.9 1 0.2 12.2 -2.3 24.9 -5.5 17.8 -4.5 23.1 -6.2 23.3 -7.5 0.3 -1.5 -0.4 -1.6 -5.6 -1.1 -8.9 1 -10.7 0.2 -12.8 -5.3 -1.7 -4.2 -1.8 -8.7 -1.9 -46.3 0 -22.8 0.2 -46.7 0.5 -53 l0.5 -11.5 -26.5 -0.3 c-22.5 -0.2 -26.9 0 -28.5 1.3 -2 1.5 -2 1.5 -0.1 3 1.1 0.8 3.5 1.5 5.3 1.5 3.7 0 9.1 2.4 10.9 4.8 1.5 2.1 2.9 83.8 1.4 89 -1.4 5.5 -5.9 11.3 -11.6 15 -4.6 3.1 -5.1 3.2 -15.2 3.2 l-10.5 0 -3.6 -3.8 c-2.2 -2.2 -4.4 -6.2 -5.6 -9.7 -1.9 -5.6 -2 -8.9 -2.2 -55 l-0.2 -49 -21.8 -0.3 c-25.7 -0.4 -32.6 0.2 -32.1 2.6 0.2 1.1 2.1 2.1 5.7 2.9 3.7 0.8 6.4 2.2 8.5 4.2 l3.1 3.1 0.5 41.3 c0.5 39.5 0.6 41.4 2.8 47.1 3.6 9.6 11.5 20.5 18.5 25.3 3.8 2.7 12.3 5.1 18.2 5.2 1.7 0 6.1 -0.6 9.8 -1.4z m180.3 -1.8 c9.1 -3.2 11.9 -4.7 19.9 -10.7 4.2 -3.2 7.6 -5 9.3 -5 2.6 0 3 0.6 5.6 8.5 2 6.3 3.2 8.5 4.4 8.5 2.3 -0.1 44.2 -10.6 44.9 -11.4 0.3 -0.3 0.3 -1.2 0 -2.1 -0.5 -1.2 -2.3 -1.5 -8.1 -1.5 -7 0 -7.6 -0.2 -10 -3 -1.4 -1.7 -2.9 -4.7 -3.3 -6.8 -0.9 -4.1 -1.1 -131.4 -0.3 -175.7 0.5 -27.6 0.5 -28 -1.5 -27.7 -25 3.2 -33.8 4.2 -43 4.8 -6 0.4 -12 1.1 -13.2 1.5 -3.8 1.4 -2.7 3.6 2.5 4.9 6.9 1.7 14.1 6 16 9.5 1.7 3.1 2.9 27.7 3.1 62.9 l0.1 14.8 -4.2 -0.5 c-2.4 -0.2 -8.7 -1.2 -14 -2.2 -9.1 -1.6 -10.5 -1.6 -19 -0.2 -16.6 2.8 -29 10.9 -41.8 27.1 -8.1 10.4 -13.3 23.6 -14.9 38.4 -1.8 16.6 0.9 29.7 8.8 41.8 4.1 6.5 16.3 18.2 22.6 21.9 10 5.9 22.8 6.7 36.1 2.2z m495.7 1.8 c13.1 -2.3 25.3 -9 35.6 -19.5 10.7 -10.9 13.2 -20.5 2.7 -10.4 -9.1 8.6 -19.7 11.9 -36.6 11.2 -13.6 -0.6 -20.7 -3.5 -28.2 -11.7 -9 -9.8 -12.7 -21.8 -12.8 -41.3 l0 -9.7 40 -0.3 c29.9 -0.2 40.2 -0.6 41.1 -1.5 1.9 -1.9 -1.3 -14.9 -5.7 -24 -8.5 -17.2 -24.3 -26.5 -44.9 -26.5 -9.8 0 -19.3 2.1 -28.8 6.5 -13 6.1 -21.1 14.6 -28.7 30.2 -7.8 15.9 -9.5 28.5 -6.5 46.1 2 11.3 6.4 20.5 14.9 31.1 10.2 12.6 19.4 17.7 36.2 20.2 8.7 1.3 13 1.2 21.7 -0.4z m127.7 -1 c9.9 -2.6 16.5 -6.1 23.4 -12.5 18 -16.9 19.4 -41 3.2 -55.7 -7.5 -6.9 -13.5 -9.8 -30.7 -14.9 -17.4 -5.2 -21.6 -7.1 -25.3 -11.4 -2.4 -2.9 -2.6 -3.9 -2.6 -11.9 0 -7.5 0.3 -9.3 2.3 -12.1 4.2 -6.3 6.8 -7.5 17.4 -7.8 14.8 -0.6 16.4 0.3 34.2 19.1 10.9 11.4 12 10.8 9 -5.3 -2.4 -12.7 -2.3 -12.5 -13.7 -16.5 -16.9 -5.9 -33.4 -5.2 -47.3 2.1 -14.1 7.5 -21.7 17.4 -24.1 31.7 -2.3 14.3 4.8 27.5 19.3 36 2.4 1.4 11.1 4.9 19.4 7.7 15.7 5.3 21.4 8.1 25.5 12.5 2.1 2.3 2.5 3.8 2.9 10.6 0.4 10.6 -0.4 14.2 -4.2 18.6 -4.3 4.9 -8.2 6.3 -17.2 6.3 -16.3 0 -21.3 -3.2 -34 -21.8 -5 -7.2 -9.2 -13.1 -9.5 -13.1 -0.3 -0.1 -1.1 0.3 -1.8 0.7 -1 0.7 -0.9 3.7 0.8 15.3 2.3 16.4 2.3 16.4 12.6 19.9 15.2 5.1 27.4 5.9 40.4 2.5z m130.6 -0.5 c9.1 -2.3 21.4 -8.5 21.4 -10.6 0 -1.3 -0.6 -1.5 -2.7 -1 -1.6 0.4 -6.4 0.9 -10.8 1.2 -9.5 0.8 -13.9 -0.7 -17.8 -5.7 -5.4 -7.2 -5.7 -10.5 -5.7 -56.6 l0 -42.3 17.4 0 c9.6 0 18.6 -0.4 19.9 -0.9 3.1 -1.2 5.9 -10.7 3.6 -12.2 -0.8 -0.5 -10.1 -0.9 -20.8 -0.9 l-19.4 0 0.6 -17.2 c0.4 -9.5 0.3 -17.8 -0.1 -18.5 -0.5 -0.8 -3.6 1.7 -9.7 7.8 -15.1 15.3 -33.1 30.2 -43.4 35.9 -8.1 4.5 -6.2 6 8.1 6 l8.7 0 -0.2 47.8 -0.2 47.7 2.3 4.5 c4.5 8.5 11.1 13.6 21.2 16.4 6.6 1.9 16.9 1.3 27.6 -1.4z m-447.8 -3.4 c0.5 -2.3 -1.4 -3.6 -5.5 -3.6 -6.5 0 -6.5 0.4 -6 -49.2 0.2 -30.7 0.7 -45.4 1.5 -47.9 1.8 -5.3 4.8 -8.6 10.3 -11.4 4.1 -2.1 6.2 -2.5 14 -2.5 10.6 0 16.4 2.2 20.7 7.8 4.3 5.7 5.2 12.9 5.2 45.7 0 30.8 -1.2 49.9 -3.3 54.4 -1 2.2 -2.1 2.7 -6.2 3.1 -4.6 0.5 -5 0.7 -5.3 3.3 l-0.3 2.7 34.5 0 34.6 0 0 -2.4 c0 -3 -1.6 -3.6 -8.9 -3.6 -10.2 0 -9.6 3.2 -9.6 -50.4 l0 -46.1 -2.9 -6.3 c-4.1 -8.9 -13.4 -17.4 -21.8 -20 -16.8 -5.2 -30.3 -3.3 -45.3 6.3 -2.8 1.8 -6.4 4.4 -7.9 5.9 -3.1 2.8 -8.6 3.6 -10.4 1.4 -0.5 -0.7 -1.6 -3.9 -2.3 -7.1 -2.2 -10 -0.6 -10.1 -26.4 1.5 -12.5 5.7 -23 10.8 -23.2 11.3 -0.1 0.6 2.2 2.3 5.3 3.9 3.6 1.9 6.6 4.4 8.3 7 l2.6 4 0.3 42.5 c0.3 42.5 0.3 42.6 -1.9 44.4 -1.4 1.1 -3.9 1.7 -7.4 1.7 -5.6 0 -8.2 1.7 -7.1 4.5 0.5 1.3 4.6 1.5 32.3 1.3 30.2 -0.3 31.8 -0.4 32.1 -2.2z m-1176.8 -62.8 c0 -27 3.4 -46.4 12.4 -69.8 3.2 -8.6 8.6 -20.4 9.6 -21 0.4 -0.3 1 -1.5 1.4 -2.7 0.4 -1.3 1.1 -2.3 1.6 -2.3 0.4 0 1.1 -1.1 1.4 -2.5 0.4 -1.4 1.1 -2.5 1.6 -2.5 0.6 0 1 -0.6 1 -1.2 0 -0.7 1 -2.5 2.3 -4 1.2 -1.4 2.9 -3.6 3.7 -4.8 0.8 -1.2 2.1 -2.8 2.8 -3.6 0.6 -0.7 1.2 -1.7 1.2 -2.1 0 -0.5 1 -1.9 2.3 -3 1.2 -1.1 4.2 -4.4 6.7 -7.3 14.1 -16.5 41.3 -34.9 67 -45.4 9.8 -4 9.6 -4.1 -4.1 -2.1 -32.3 4.9 -61.1 17.2 -84.9 36.3 -6.5 5.2 -21.1 19.3 -26 25.2 -1.9 2.3 -4.1 4.8 -4.7 5.5 -0.7 0.8 -1.3 1.6 -1.3 2 0 0.3 -0.5 1.1 -1 1.8 -0.6 0.7 -2 2.3 -3.1 3.7 -1.2 1.4 -2.6 3.7 -3.1 5.3 -0.6 1.5 -1.4 2.7 -1.9 2.7 -0.5 0 -0.9 0.6 -0.9 1.4 0 0.8 -0.6 2.1 -1.3 2.8 -1.6 1.7 -10.9 21.8 -13.5 29.3 -2.9 8.5 -4.9 15.9 -6.2 23.6 l-1.2 6.7 5.7 9 c3.1 5 8.2 12.6 11.4 16.9 5.7 7.8 18.6 21.3 20.2 21.3 0.5 0 0.9 -8.7 0.9 -19.2z"/>
  <path d="M1081.2 436.4 c-9.7 -4.8 -18 -17 -22.4 -33.1 -1.9 -6.8 -2.2 -10.4 -2.2 -28.8 -0.1 -24.3 0.7 -28.3 7.7 -38.7 5.9 -8.9 9.7 -10.8 21.3 -10.8 7.7 0 9.8 0.4 14.2 2.6 7.3 3.6 12.8 10.2 14.1 16.7 0.6 2.9 1.1 22.8 1.3 44.2 0.3 37.6 0.2 39.1 -1.7 42.4 -3.2 5.5 -9.3 8.1 -19 8.1 -6.7 0 -9 -0.4 -13.3 -2.6z"/>
  <path d="M1546.2 356.3 c0.9 -14.6 6.1 -24.9 14.9 -29.4 5.3 -2.6 17.1 -2.7 21.5 0 5.6 3.4 9.4 14.6 9.4 27.6 0 9.9 0 9.9 -25.2 10.3 l-21.1 0.4 0.5 -8.9z"/>
 </g>
 <g fill="#393e46">
  <path d="M1181.9 535.7 c-11.2 -5.9 -12.1 -23.4 -1.7 -30.9 4.8 -3.4 12.4 -3.2 20.7 0.6 9.5 4.2 10.2 3.8 18.3 -11.9 3.7 -7.2 8.8 -17.7 11.3 -23.4 l4.6 -10.3 -2.2 -6.7 c-6.6 -20.2 -43 -112.1 -46.4 -117.3 -2.5 -3.8 -4.1 -4.5 -10.5 -5 l-3.5 -0.3 -0.3 -5.8 -0.3 -5.7 37.8 0.2 37.8 0.3 0 5.5 0 5.5 -4.8 0.6 c-5.7 0.6 -6.9 2 -6.3 7.2 0.8 7 20 72.7 21.2 72.7 0.6 0 5.2 -10 10.2 -22.2 16.9 -41.7 19.8 -50.8 17.4 -54.4 -1.3 -2 -5 -3.4 -8.9 -3.4 -5.6 0 -6.5 -1 -6.1 -6.6 l0.3 -4.9 28 0 28 0 0.3 3.4 c0.2 1.9 0.1 4.4 -0.2 5.7 -0.6 2.1 -1.3 2.4 -4.9 2.4 -5.9 0 -9.8 2.8 -14.1 9.9 -5.3 8.6 -26 51.4 -49.6 102.1 -36 77.5 -41.1 86.4 -52.2 91.9 -8 4 -17.2 4.3 -23.9 0.8z"/>
  <path d="M644.6 455.5 c-9.9 -2.1 -19 -5.3 -21.4 -7.6 -1.2 -1.1 -2.2 -2.1 -2.2 -2.2 -2 -12.6 -4.5 -32.9 -4.1 -33.5 0.6 -0.8 6.6 -3.2 8.2 -3.2 0.4 0 4.4 5.4 8.9 12 13.5 19.9 18.2 23.4 31.6 23.5 6.9 0 8.5 -0.3 11.7 -2.5 5.3 -3.7 7.9 -8.9 7.9 -16.2 0 -10.6 -5.4 -14.9 -28.3 -22.7 -16.3 -5.6 -24.2 -9.7 -30.1 -15.8 -14.1 -14.5 -12.4 -43.6 3.3 -57.7 6.5 -5.9 17.5 -11.4 26.1 -13.2 7.6 -1.7 21.4 -1.3 30.8 0.7 6.3 1.3 17.6 5.8 18.9 7.3 1.4 1.7 6.4 27.3 5.6 28.6 -0.5 0.8 -6.9 4 -8 4 -0.1 0 -3.8 -3.7 -8.1 -8.2 -18.3 -19.2 -20.6 -20.8 -30.9 -20.8 -7.2 0 -12.7 2.7 -16.3 8 -2 3 -2.3 4.4 -2 9.7 0.6 10.3 3.9 12.6 27.5 19.6 8.2 2.5 17.2 5.6 20 7 7.4 3.8 15.8 11.9 19 18.5 2.6 5.3 2.8 6.6 2.8 17.7 0 11.7 -0.1 12.2 -3.6 19.6 -6.4 13.2 -17.5 22 -33.4 26.4 -8.4 2.3 -25.4 2.8 -33.9 1z"/>
  <path d="M775 455.5 c-10.9 -3.1 -17.2 -8.4 -21.8 -18.4 l-2.5 -5.4 0.4 -46.4 0.4 -46.4 -9.7 -0.2 c-7.4 -0.2 -10.1 -0.6 -11.3 -1.8 -2.3 -2.3 -0.9 -6.8 2.8 -8.8 11.2 -6.1 29.6 -21 45.3 -36.8 9.6 -9.7 11.5 -10.9 14.6 -9.2 2 1.1 2.1 1.6 1.4 19 l-0.7 17.8 20.5 0.3 c11.2 0.2 20.8 0.7 21.2 1.1 0.8 0.8 -2 16.4 -3.1 17.6 -0.4 0.3 -9.4 0.7 -20.1 0.9 l-19.4 0.4 0 38.7 c0 42.2 0.5 47.2 5.7 53.9 3.6 4.8 8.4 6.6 15.5 5.8 3.2 -0.4 7.4 -1.4 9.3 -2.1 4.8 -2.1 5 -2 7 2.5 2.3 5 1.6 5.9 -7.8 10.7 -13.8 6.9 -36 10.1 -47.7 6.8z"/>
  <path d="M886.8 455.6 c-3.1 -0.7 -7.4 -2.4 -9.5 -3.9 -7 -4.8 -14.9 -15.7 -18.5 -25.3 -2.2 -5.7 -2.3 -7.6 -2.8 -47.1 l-0.5 -41.3 -3.1 -3.1 c-2.1 -2.1 -4.8 -3.4 -8.5 -4.2 l-5.4 -1.2 -0.3 -4.7 -0.3 -4.6 5.3 -0.7 c2.9 -0.3 16.5 -0.5 30.2 -0.3 l24.9 0.3 0.1 49 c0.1 46.2 0.2 49.3 2.1 55 1.2 3.5 3.4 7.5 5.6 9.7 3.5 3.7 3.7 3.8 11.1 3.8 6.7 0 7.9 -0.3 12.2 -3.2 5.5 -3.6 10.1 -9.5 11.6 -14.7 1.4 -4.9 0.1 -81.3 -1.4 -83.3 -1.7 -2.3 -7.2 -4.8 -10.6 -4.8 -5.2 0 -7 -1.6 -7 -6 0 -2.9 0.5 -4.2 2 -5 1.2 -0.7 12.2 -0.9 31.2 -0.8 l29.3 0.3 -0.5 14.5 c-0.3 8 -0.5 31.8 -0.4 53 0.1 49.5 0.1 49.4 12.8 48.3 l7.4 -0.6 0.7 4.2 c0.4 2.3 0.5 4.5 0.2 4.8 -0.3 0.3 -12.2 3.4 -26.4 7 -18.8 4.7 -26.5 6.2 -28.2 5.6 -2.8 -0.9 -3.6 -3.2 -4.6 -13.5 -0.7 -7.6 -1.9 -8.4 -5 -3.7 -1.1 1.6 -4.1 4.6 -6.6 6.5 -13 9.6 -31.1 13.4 -47.1 10z"/>
  <path d="M1059 455.5 c-7.5 -2.1 -12.3 -5.2 -21 -13.2 -17 -15.7 -22.8 -32.7 -20 -58.8 2.2 -21.5 8.3 -34 24.8 -50.8 15 -15.4 38.4 -21.1 62.7 -15.3 3.3 0.8 6.2 1.3 6.4 1.1 0.2 -0.2 -0.1 -15.6 -0.6 -34.2 -0.7 -28.2 -1.1 -34.3 -2.5 -36.8 -1.9 -3.5 -9.1 -7.8 -16 -9.5 l-4.8 -1.2 0 -4.4 c0 -5.5 0.8 -5.9 15 -6.8 15.4 -1 35.6 -3.4 42.9 -5.2 5.3 -1.2 6.6 -1.3 7.8 -0.2 1 1.1 1.1 8.9 0.2 44.3 -0.6 23.7 -0.9 69.1 -0.7 101 0.3 50.6 0.5 58.4 1.9 61.5 2.7 5.8 4.6 6.9 12.9 7.2 l7.4 0.3 0.8 4 c0.7 3 0.5 4.2 -0.5 5 -2.3 1.6 -49.2 12.9 -50.9 12.2 -1 -0.3 -2.8 -4.1 -4.4 -9 l-2.7 -8.4 -6.4 4.9 c-7.7 5.8 -10.6 7.3 -19.7 10.5 -9.2 3.2 -24.6 4 -32.6 1.8z m45.1 -21.8 c2.4 -1.3 5.3 -3.9 6.4 -5.8 1.9 -3.3 2 -4.8 1.7 -39.4 -0.2 -19.8 -0.7 -38.3 -1.3 -41.2 -2.8 -14.4 -22.8 -24.1 -35.4 -17 -4.9 2.8 -11.8 12.7 -14.2 20.5 -2.8 8.9 -2.4 38.8 0.5 49.5 7.5 27.4 26 42 42.3 33.4z"/>
  <path d="M1559.6 455.9 c-16.8 -2.5 -26 -7.6 -36.2 -20.2 -11.8 -14.7 -16.4 -28.5 -16.4 -48.9 0 -12.8 2.3 -22.6 8 -34.3 9.6 -19.8 22.3 -30.2 42.7 -35.2 8.1 -1.9 26.4 -2.2 33.8 -0.4 20.9 5.1 35 22.1 38.3 46.4 1.4 11 4.8 10.2 -41.7 10.5 l-40.1 0.3 0 6.7 c0.1 9.2 2.3 21.1 5.2 27.4 3.7 7.9 11.5 15.9 19 19.4 5.8 2.6 7.2 2.9 17.3 2.8 9 0 12 -0.4 16.7 -2.2 6.7 -2.7 13.9 -8 17.1 -12.7 l2.3 -3.4 4.2 2.1 c2.9 1.5 4.2 2.8 4.2 4.2 0 5.6 -11.3 19.6 -21.4 26.6 -14.7 10 -33 13.8 -53 10.9z m27.3 -96.3 c2.4 -2.2 2.6 -5.5 1.1 -13.7 -2.3 -11.9 -7.5 -17.9 -15.8 -17.9 -11.7 0 -21.1 11.6 -22.9 28.2 l-0.6 6 18 -0.4 c16.1 -0.3 18.3 -0.5 20.2 -2.2z"/>
  <path d="M1681.6 455.5 c-9 -1.9 -18.5 -5.1 -21.4 -7.3 -1.9 -1.5 -2.5 -3.8 -4.5 -18.3 -1.3 -9.1 -2.1 -17.1 -1.9 -17.7 0.5 -1.5 8.2 -3.6 9.2 -2.5 0.4 0.4 4.7 6.6 9.6 13.7 12 17.4 18 21.6 30.9 21.6 6 0 10.3 -1.9 14.2 -6.3 3.6 -4.1 4.8 -8.6 4.1 -15.8 -0.9 -8.7 -5.9 -12.3 -28.3 -19.9 -20.1 -6.9 -28.3 -11.9 -34.1 -21.1 -9.5 -15.2 -5.9 -40.1 7.7 -52.3 7 -6.3 19 -12.1 28.1 -13.6 9.8 -1.7 26.7 -0.1 36.8 3.4 11.8 4.2 11.4 3.6 14.4 19.2 1.4 7.5 2.3 14.1 2 14.5 -0.9 1.6 -7.6 3.9 -8.8 3.1 -0.7 -0.4 -5.6 -5.4 -11 -11.2 -14.4 -15.5 -18.5 -17.8 -30.2 -16.8 -9.6 0.8 -15.4 7.2 -15.4 16.9 0 4.7 0.5 6.3 2.6 8.9 3.7 4.3 7.9 6.2 25.3 11.4 17.2 5.1 23.2 8 30.7 14.9 7.7 7 10.7 13.8 11.2 25.2 0.7 15.4 -3.7 26.4 -14.4 36.5 -10.3 9.6 -21.8 13.8 -39.4 14.5 -6.8 0.3 -12.9 -0.1 -17.4 -1z"/>
  <path d="M1812 455.5 c-10.2 -2.9 -16.8 -8 -21.2 -16.5 l-2.3 -4.5 0.2 -47.7 0.1 -47.8 -8.6 0 c-10.8 0 -13.1 -0.6 -13.8 -3.5 -0.8 -3.4 1.1 -6.2 5.8 -8.6 9 -4.6 24.1 -17 40.8 -33.4 6.3 -6.2 12.5 -11.6 13.6 -11.9 1.4 -0.4 2.8 -0.1 3.9 1.1 1.6 1.5 1.7 3.3 1 19 l-0.7 17.3 18.9 0 c10.3 0 19.8 0.3 21.1 0.6 2.7 0.8 2.7 2.3 0.6 11 -1.3 5.2 -2.2 6.7 -4.1 7.5 -1.3 0.5 -10.3 0.9 -19.9 0.9 l-17.4 0 0 39.3 c0 42.8 0.4 46.5 5.7 53.6 4.5 5.9 10.6 7.3 20.3 4.5 10.1 -2.8 9.4 -2.9 11.3 1.1 2.4 5 1.2 6.7 -7.5 11.1 -13.9 7 -36 10.2 -47.8 6.9z"/>
  <path d="M1327.7 452.3 c-1.2 -1.1 -0.8 -8.8 0.5 -10.1 0.7 -0.7 3.5 -1.2 6.4 -1.2 3.4 0 5.9 -0.6 7.3 -1.7 2.2 -1.8 2.2 -1.9 1.9 -41.4 l-0.3 -39.5 -2.6 -4 c-1.8 -2.6 -4.7 -5.1 -8.3 -7 -5.9 -3 -7.9 -6.2 -5.9 -9.3 1 -1.5 43.9 -21.4 48.8 -22.7 3.5 -0.9 6 2.3 7.5 9.4 1.6 8 2.9 9 6.6 5.6 15.1 -14.1 37.9 -18.8 58.9 -12.3 8.7 2.7 17.9 11 22.1 20.1 l2.9 6.3 0 46.1 c0 53.6 -0.6 50.4 9.6 50.4 8.5 0 8.9 0.3 8.9 6.6 l0 5.4 -37.5 0 -37.6 0 0.3 -5.7 0.3 -5.8 5 -0.5 c6.4 -0.6 7.1 -2.1 8.5 -16.6 1.5 -15.8 1.3 -63.4 -0.3 -71.1 -1.6 -7.4 -4.9 -12.1 -10.9 -15.1 -9.1 -4.5 -23 -1.9 -28.7 5.4 -4.2 5.3 -4.4 8.3 -4.8 51.2 -0.5 46.3 -0.5 46.2 6 46.2 5 0 5.9 1.1 5.5 6.6 l-0.3 4.9 -34.6 0.3 c-19 0.1 -34.8 -0.1 -35.2 -0.5z"/>
 </g>
 <g fill="#fd6f13">
  <path d="M333.5 553.4 c-19 -2.1 -42.8 -8.8 -56.4 -16 -3.6 -1.9 -5.7 -3.2 -4.6 -3 12.9 3 38.6 3.1 57 0.2 22.6 -3.6 47.2 -12.8 66.5 -25 17.3 -10.8 37.1 -28.9 48.9 -44.6 17.8 -23.5 30.5 -54 35.2 -84.5 1.8 -11.7 1.5 -41.8 -0.5 -54 -6.1 -36.7 -21.4 -68.5 -46.4 -96.2 -4.1 -4.6 -7.1 -8.3 -6.8 -8.3 1.1 0 18 10.1 24.3 14.6 23.2 16.5 43.2 39.5 55 62.8 22 43.6 25.1 95.5 8.6 140.1 -8.9 23.8 -22.9 45.3 -41.2 63.4 -26.3 25.8 -56.7 41.8 -91.4 48.1 -10.9 2 -39 3.4 -48.2 2.4z"/>
  <path d="M275 518.6 c-15.4 -2 -34 -7.4 -43 -12.3 -2.5 -1.4 -8 -6.4 -12.3 -11.2 -20.8 -22.9 -35.1 -51.7 -40.6 -81.8 -2.1 -11.3 -3.6 -24.3 -2.7 -24.3 0.2 0 2.2 2.4 4.3 5.3 6.2 8.5 7.3 9.8 16.8 19.3 19.6 19.6 38.9 32 64.9 41.5 39.4 14.5 86.5 14.4 125.3 0 23.5 -8.8 40.1 -18.9 59.2 -36 7.7 -6.9 8.4 -7.3 7.7 -4.6 -0.9 3.6 -11.6 25.4 -13.3 27.3 -0.7 0.7 -1.3 2 -1.3 2.8 0 0.8 -0.4 1.4 -1 1.4 -0.5 0 -1 0.7 -1 1.5 0 0.8 -0.4 1.5 -1 1.5 -0.5 0 -1 0.6 -1 1.4 0 0.8 -0.7 1.6 -1.5 2 -0.8 0.3 -1.5 1 -1.5 1.6 0 2.3 -21 23.3 -31.4 31.4 -21.3 16.7 -46.3 27.6 -73.3 32.2 -12.7 2.1 -40.5 2.6 -53.3 1z"/>
  <path d="M221.3 413.7 c-0.4 -0.7 -3.9 -3.9 -7.8 -7.1 -11.7 -9.8 -21.5 -21.8 -32.5 -40 l-5 -8.3 1.6 -8.9 c2.7 -15.9 6.1 -26.3 13.8 -42.9 2.8 -6 5.6 -11.6 6.3 -12.3 0.7 -0.7 1.3 -2 1.3 -2.8 0 -0.8 0.4 -1.4 0.9 -1.4 0.5 0 1.3 -1.2 1.9 -2.8 0.5 -1.5 1.9 -3.8 3.1 -5.2 1.1 -1.4 2.5 -3 3.1 -3.7 0.5 -0.7 1 -1.5 1 -1.8 0 -0.4 0.6 -1.2 1.3 -2 0.6 -0.7 2.8 -3.2 4.7 -5.5 4.9 -5.9 19.5 -20 26 -25.2 30.6 -24.6 69.3 -37.9 109.7 -37.7 l14.8 0 -10.1 2.9 c-33 9.5 -67.9 30.5 -86.4 52 -2.5 2.9 -5.5 6.2 -6.7 7.3 -1.3 1.1 -2.3 2.5 -2.3 3 0 0.4 -0.6 1.4 -1.2 2.1 -0.7 0.8 -2 2.4 -2.8 3.6 -0.8 1.2 -2.5 3.4 -3.7 4.8 -1.3 1.5 -2.3 3.3 -2.3 4 0 0.6 -0.4 1.2 -1 1.2 -0.5 0 -1.2 1.1 -1.6 2.5 -0.3 1.4 -1 2.5 -1.4 2.5 -0.5 0 -1.2 1 -1.6 2.3 -0.4 1.2 -1 2.4 -1.4 2.7 -1 0.6 -6.4 12.4 -9.6 21 -4.5 11.7 -8.4 26.3 -10.4 38.5 -2.4 14.4 -2.7 42.4 -0.6 52.3 1.2 5.8 0.7 7.9 -1.1 4.9z"/>
 </g>
</svg>